<?xml version="1.0" encoding="utf-8"?>
<!-- Generator: Adobe Illustrator 17.1.0, SVG Export Plug-In . SVG Version: 6.00 Build 0)  -->
<!DOCTYPE svg PUBLIC "-//W3C//DTD SVG 1.1//EN" "http://www.w3.org/Graphics/SVG/1.1/DTD/svg11.dtd">
<svg version="1.1" id="レイヤー_1" xmlns="http://www.w3.org/2000/svg" xmlns:xlink="http://www.w3.org/1999/xlink" x="0px"
	 y="0px" viewBox="0 0 147 127" enable-background="new 0 0 147 127" xml:space="preserve">
<g>
	<path fill="#FFFFFF" d="M143.8,24.8h-20C112.2,9.7,94,0,73.5,0C53,0,34.7,9.7,23.1,24.8h-20c-3.6,0-4.3,1.9-1.6,4.3l12.8,11.2
		C11.5,47.4,10,55.3,10,63.5C10,98.6,38.4,127,73.5,127c35.1,0,63.5-28.4,63.5-63.5c0-8.2-1.6-16.1-4.4-23.3L145.4,29
		C148.1,26.7,147.3,24.8,143.8,24.8z"/>
	<path d="M73.5,39.2c2.9,0,5.8,0.3,8.4,0.9l4-5.5c-3.8-1.8-8-2.8-12.4-2.8c-4.4,0-8.6,1-12.4,2.8l4,5.5
		C67.8,39.5,70.6,39.2,73.5,39.2z"/>
	<path d="M73.5,94.4c14.3,0,24.2-9.5,27.9-22.6H45.5C49.3,84.9,59.2,94.4,73.5,94.4z"/>
	<path d="M101.7,53.4c-1.4-5.2-4.2-9.9-8.1-13.6l-4.9,2.3C94.7,44.7,99.3,48.7,101.7,53.4z"/>
	<path d="M73.9,51.9c0,0,3.2,7,7.3,8.4c-2.3,2.7-2.9,7-1.7,5.8c6.3-6.5,16.2-8.4,20.3-3c0.5,0.7,0.8,1.3,1.1,1
		c1-0.9,0.3-6.7-3.6-8.8c-4.4-2.4-9.8-0.6-14.1,3C78.1,57.3,73.9,51.9,73.9,51.9z"/>
	<path d="M58.3,42.2l-4.9-2.4c-3.8,3.6-6.7,8.3-8.1,13.6C47.7,48.7,52.4,44.7,58.3,42.2z"/>
	<g>
		<path d="M143.5,27.2l-30.6,0C103.1,16.5,89.1,9.8,73.5,9.8c-15.6,0-29.6,6.7-39.4,17.4l-30.6,0l20.2,17
			c-2.2,5.9-3.4,12.2-3.4,18.8c0,29.4,23.8,53.2,53.2,53.2c29.4,0,53.2-23.8,53.2-53.2c0-6.6-1.2-13-3.4-18.9L143.5,27.2z
			 M10.3,29.8l25.4,0.1c0,0,2.9-3.9,6.4-7c3.5-3.1,7.3-4.3,7.3-4.3l9.4,12.8c4.5-2.1,9.5-3.3,14.7-3.3c5.3,0,10.3,1.2,14.7,3.3
			l9.4-12.8c0,0,3.8,1.2,7.3,4.3c3.5,3.1,6.4,7,6.4,7l25.4-0.1l-27.3,21c0,0-0.9-3.5-3.4-7.8c-2.6-4.4-5.5-6.5-5.5-6.5l-2.8,1.4
			c6.6,6.4,10.8,15.3,10.8,25.2c0,19.3-15.6,35-35,35c-19.3,0-35-15.6-35-35c0-4.5,0.9-8.9,2.4-12.8c0.6,1.1,2.5,4.7,5,6.8
			c-1.3,2.2-0.5,4.4,1.5,6.4c2.9,2.9,16.6,3.8,20.1,2.6c4.5-1.6-10.8-17.5-18.8-11.8c-0.5,0.4-1,0.7-1.4,1.1
			c-3.2-1.6-5.6-4.3-6.4-5.2c1.9-4.7,4.7-8.9,8.3-12.3l-2.8-1.4c0,0-2.9,2.1-5.5,6.5c-2.5,4.2-3.4,7.8-3.4,7.8L10.3,29.8z
			 M119.4,59.3l-9.4,1.1l-0.4-3.3l9.4-1.1L119.4,59.3z M22.7,60.4c0.1-1.1,0.2-2.1,0.5-2.8c0.3-0.8,0.7-1.4,1.3-1.8
			c0.5-0.4,1.1-0.6,1.8-0.8c0.7-0.1,1.8-0.2,3.2-0.1L31,55l5.6,0.3l-0.2,3.6L30,58.5c-0.9,0-1.6-0.1-2,0c-0.4,0-0.8,0.1-1,0.2
			c-0.3,0.1-0.6,0.3-0.8,0.7c-0.2,0.3-0.3,0.7-0.3,1.2c0,0.5,0,0.9,0.2,1.3c0.2,0.3,0.4,0.6,0.7,0.8c0.3,0.1,0.6,0.2,1,0.3
			c0.4,0.1,1.1,0.1,2,0.2l0.9,0l5.5,0.3L36,67l-7-0.4c-1.4-0.1-2.5-0.2-3.2-0.4c-0.7-0.2-1.3-0.5-1.7-1c-0.5-0.5-0.9-1.1-1.1-1.9
			C22.8,62.5,22.7,61.5,22.7,60.4z M27.1,83.2l4.7-7c0.1-0.1,0.3-0.4,0.6-0.7c0.3-0.3,0.7-0.7,1.1-1.2c-0.5,0.3-0.9,0.5-1.3,0.7
			c-0.4,0.2-0.7,0.3-1,0.4l-6.1,2.2l-1.2-3.3l12.4-4.5l1.2,3.3l-4.7,7c-0.1,0.1-0.3,0.4-0.6,0.7c-0.3,0.4-0.7,0.7-1.2,1.2
			c0.5-0.3,0.9-0.5,1.3-0.6c0.4-0.2,0.7-0.3,1.1-0.4l6.1-2.2l1.2,3.2l-12.4,4.5L27.1,83.2z M34.8,95.4l-2.2-2.9l10.4-8.1l2.2,2.9
			L34.8,95.4z M52.3,97.7l-2.3-1.8l-6.2,7.9l-2.8-2.2l6.2-7.9l-2.3-1.8l1.9-2.5l7.5,5.9L52.3,97.7z M59.8,105.3l-2.1,5.7l-3.3-1.2
			l2.1-5.7l-1.9-8.3l3.9,1.4l0.5,3.8c0,0,0,0.1,0,0.1c0.1,0.4,0.1,0.8,0,1.1c0.2-0.3,0.4-0.5,0.7-0.8c0.1,0,0.1-0.1,0.1-0.1l2.8-2.6
			l3.9,1.4L59.8,105.3z M80.1,105.3l-4.1,3.1l1.7,4.9l0,0l-4.2-3l-4.1,3.1l0,0l1.5-5l-4.2-2.9l0-0.1l5.1-0.1l1.5-4.9l0.1,0l1.7,4.9
			L80.1,105.3L80.1,105.3z M93,110c-0.5,0.3-1,0.6-1.5,0.8c-0.7,0.2-1.3,0.4-2,0.4c-0.6,0-1.2,0-1.8-0.2c-1.2-0.3-2.1-0.8-3-1.6
			c-0.8-0.8-1.4-1.7-1.9-2.9c-0.3-1-0.5-1.9-0.5-2.8c0-0.9,0.2-1.8,0.6-2.6c0.4-0.8,0.9-1.5,1.5-2.1c0.6-0.6,1.4-1,2.3-1.3
			c0.5-0.2,1.1-0.3,1.7-0.4c0.6-0.1,1.2-0.1,1.8,0l1.3,3.7c-0.6-0.3-1.2-0.6-1.8-0.6c-0.5-0.1-1.1,0-1.6,0.2c-1,0.3-1.6,1-2,1.8
			c-0.4,0.9-0.4,1.9,0,2.9c0.4,1,1,1.7,1.8,2.1c0.8,0.4,1.7,0.5,2.7,0.1c0.5-0.2,1-0.5,1.4-0.9c0.4-0.4,0.7-1,1-1.6l1.3,3.7
			C94,109.2,93.5,109.6,93,110z M107.1,100.7l-3.4-4.2l-3.7,3l3.4,4.2l-2.8,2.3l-8.3-10.3l2.8-2.3l3.2,4l3.7-3l-3.2-4l2.8-2.3
			l8.3,10.3L107.1,100.7z M118.5,86l-2.4-0.6l-2.6,4.4l1.7,1.8l-1.8,3.1l-9-10.6l2.3-3.9l13.7,2.8L118.5,86z M123.7,68.4l-7.5,3.8
			c-0.2,0.1-0.5,0.2-0.9,0.3c-0.4,0.1-1,0.3-1.6,0.5c0.6,0,1,0,1.5,0.1c0.4,0,0.8,0.1,1.1,0.1l6.4,1.1l-0.6,3.4l-13-2.2l0.6-3.4
			l7.5-3.8c0.2-0.1,0.5-0.2,0.9-0.3c0.4-0.1,1-0.3,1.6-0.5c-0.6,0-1,0-1.5-0.1s-0.8-0.1-1.1-0.1l-6.4-1.1l0.6-3.4l13,2.2L123.7,68.4
			z M123.9,57.1c0.1,0.5-0.1,0.9-0.4,1.3c-0.3,0.4-0.7,0.6-1.2,0.7c-0.5,0.1-1-0.1-1.3-0.4c-0.4-0.3-0.6-0.7-0.7-1.2
			c-0.1-0.5,0.1-1,0.4-1.4c0.3-0.4,0.7-0.6,1.2-0.7c0.5-0.1,1,0.1,1.4,0.4C123.6,56.1,123.9,56.5,123.9,57.1z"/>
		<path d="M108.7,84.4l3.1,3.4l1.8-3.1l-4.4-1.1c-0.1,0-0.3-0.1-0.6-0.2c-0.3-0.1-0.7-0.2-1.1-0.3c0.2,0.2,0.5,0.5,0.7,0.7
			C108.3,84,108.5,84.2,108.7,84.4z"/>
	</g>
	<path d="M18.4,48.6l-0.6,2.2l0,0l-0.8-2.2l-2.4,0.1l0,0l1.9-1.5L15.6,45l0,0l2,1.3l1.8-1.4l0,0l-0.6,2.2l2,1.3l0,0L18.4,48.6z"/>
	<path d="M16.8,56.9l-0.3,2.3l0,0l-1.1-2.1L13,57.6l0,0l1.6-1.7l-1.1-2.1l0,0l2.1,1l1.6-1.7l0,0L17,55.4l2.1,1l0,0L16.8,56.9z"/>
	<path d="M16.4,65.3l0,2.3l0,0L15,65.8l-2.2,0.8l0,0l1.4-1.9l-1.4-1.9l0,0l2.3,0.7l1.3-1.9l0,0l0,2.3l2.3,0.7l0,0L16.4,65.3z"/>
	<path d="M130.7,64.8l0.1-2.3l0,0l1.3,1.9l2.3-0.7l0,0l-1.4,1.9l1.3,2l0,0l-2.2-0.8l-1.4,1.8l0,0l0.1-2.3l-2.2-0.8l0,0L130.7,64.8z"
		/>
	<path d="M130.2,56.4l-0.3-2.3l0,0l1.6,1.7l2.2-1l0,0l-1.2,2.1l1.6,1.7l0,0l-2.3-0.5l-1.1,2l0,0l-0.3-2.3l-2.3-0.5l0,0L130.2,56.4z"
		/>
	<path d="M128.5,48.1l-0.6-2.3l0,0l1.8,1.5l2-1.3l0,0l-0.8,2.2l1.8,1.5l0,0l-2.4-0.1l-0.8,2.2l0,0l-0.6-2.3l-2.4-0.1l0,0L128.5,48.1
		z"/>
	<path d="M113.3,22.7l-1.7-1.6l0,0l2.3,0.4l1.1-2.1l0,0l0.4,2.3l2.3,0.4l0,0l-2.1,1.1l0.4,2.3l0,0l-1.7-1.6l-2.1,1.1l0,0L113.3,22.7
		z"/>
	<path d="M106.4,17l-1.9-1.4l0,0l2.3,0l0.7-2.3l0,0l0.7,2.2l2.4,0l0,0l-1.9,1.4l0.7,2.2l0,0l-1.9-1.4l-1.9,1.4l0,0L106.4,17z"/>
	<path d="M98.7,12.5l-2.1-1.1l0,0l2.3-0.4l0.4-2.3l0,0l1.1,2.1l2.3-0.4l0,0l-1.7,1.7l1.1,2.1l0,0l-2.1-1.1l-1.7,1.7l0,0L98.7,12.5z"
		/>
	<path d="M90.4,9.2l-2.2-0.7l0,0l2.2-0.7l0-2.4l0,0l1.4,1.9L94,6.5l0,0l-1.4,1.9l1.4,1.9l0,0l-2.2-0.7l-1.4,1.9l0,0L90.4,9.2z"/>
	<path d="M81.6,7.2l-2.3-0.4l0,0l2.1-1.1L81,3.4l0,0l1.7,1.7L84.8,4l0,0l-1.1,2.1l1.7,1.6l0,0l-2.3-0.4L82,9.6l0,0L81.6,7.2z"/>
	<path d="M72.7,6.7l-2.3,0l0,0l1.9-1.4L71.4,3l0,0l1.9,1.4L75.3,3l0,0l-0.7,2.3l1.9,1.3l0,0l-2.3,0l-0.7,2.3l0,0L72.7,6.7z"/>
	<path d="M63.8,7.5l-2.3,0.4l0,0l1.7-1.6l-1.1-2.1l0,0l2.1,1.1l1.7-1.7l0,0l-0.4,2.3l2.1,1.1l0,0l-2.3,0.4l-0.4,2.3l0,0L63.8,7.5z"
		/>
	<path d="M55.1,9.7l-2.2,0.7l0,0l1.4-1.9l-1.4-1.9l0,0l2.3,0.7l1.4-1.9h0l0,2.4l2.2,0.7l0,0l-2.2,0.7l0,2.4l0,0L55.1,9.7z"/>
	<path d="M46.9,13.2l-2.1,1.1l0,0l1.1-2.1l-1.7-1.7l0,0l2.3,0.4l1.1-2.1l0,0l0.4,2.3l2.3,0.4l0,0l-2.1,1.1l0.4,2.3l0,0L46.9,13.2z"
		/>
	<path d="M39.3,18l-1.9,1.4l0,0l0.7-2.2l-1.9-1.4l0,0l2.4,0l0.7-2.3l0,0l0.7,2.3l2.3,0l0,0l-1.9,1.4l0.7,2.2l0,0L39.3,18z"/>
	<path d="M32.6,23.9L31,25.5l0,0l0.4-2.3l-2.1-1.1l0,0l2.3-0.4l0.4-2.3l0,0l1.1,2.1l2.3-0.4l0,0l-1.7,1.7l1.1,2.1l0,0L32.6,23.9z"/>
	<g>
		<path d="M13.2,72.4l5.9-1.1l0.3,1.6l-4.5,0.8l0.4,2L13.9,76L13.2,72.4z"/>
		<path d="M14.1,76.9l5.8-1.4l0.4,1.6l-5.8,1.4L14.1,76.9z"/>
		<path d="M21.7,82.2L20,82.8c0.2-0.3,0.3-0.6,0.3-0.8c0-0.2,0-0.5-0.1-0.7c-0.1-0.4-0.4-0.8-0.8-0.9s-0.8-0.2-1.3,0
			c-0.5,0.1-0.8,0.4-1,0.8c-0.2,0.4-0.2,0.8-0.1,1.2c0.1,0.2,0.2,0.5,0.4,0.6c0.2,0.2,0.4,0.3,0.7,0.5L16.4,84
			c-0.2-0.2-0.4-0.4-0.5-0.7c-0.1-0.2-0.2-0.5-0.3-0.7c-0.1-0.3-0.2-0.6-0.2-0.9c0-0.3,0-0.6,0.1-0.8c0.1-0.5,0.4-1,0.8-1.3
			c0.4-0.4,0.8-0.6,1.4-0.8c0.4-0.1,0.9-0.2,1.3-0.2c0.4,0,0.8,0.1,1.2,0.3c0.4,0.2,0.7,0.4,0.9,0.7c0.2,0.3,0.4,0.7,0.6,1.1
			c0.1,0.2,0.1,0.5,0.1,0.8C21.7,81.7,21.7,82,21.7,82.2z"/>
		<path d="M16.6,85l5.5-2.3l1.4,3.4l-1.2,0.5l-0.8-1.9l-1,0.4l0.8,1.8l-1.2,0.5l-0.8-1.8L18.5,86l0.8,1.9L18,88.4L16.6,85z"/>
		<path d="M18.5,89.6l5.3-2.9l0.8,1.4l-1.6,3.5c0,0.1-0.1,0.2-0.2,0.4c-0.1,0.2-0.3,0.4-0.4,0.6c0.2-0.1,0.4-0.3,0.5-0.4
			c0.2-0.1,0.3-0.2,0.4-0.3l2.6-1.4l0.8,1.4l-5.3,2.9l-0.8-1.4l1.6-3.5c0-0.1,0.1-0.2,0.2-0.4c0.1-0.2,0.3-0.4,0.4-0.6
			c-0.2,0.1-0.4,0.3-0.6,0.4c-0.2,0.1-0.3,0.2-0.4,0.3L19.3,91L18.5,89.6z"/>
		<path d="M23.9,95.1c-0.1,0.4-0.1,0.7-0.1,0.9c0,0.3,0.1,0.5,0.2,0.7c0.1,0.2,0.3,0.3,0.5,0.3c0.2,0,0.3,0,0.5-0.1
			c0.2-0.1,0.3-0.2,0.3-0.4c0-0.2,0-0.5-0.2-0.9c-0.2-0.6-0.3-1-0.2-1.4c0.1-0.3,0.3-0.6,0.7-0.9c0.5-0.3,1-0.4,1.5-0.3
			c0.5,0.1,0.9,0.4,1.3,0.9c0.2,0.3,0.3,0.6,0.4,0.9c0.1,0.3,0.1,0.6,0.1,0.9l-1.3,0.2c0-0.2,0-0.5,0-0.7c0-0.2-0.1-0.4-0.2-0.5
			c-0.1-0.2-0.2-0.3-0.4-0.3c-0.1,0-0.3,0-0.4,0.1c-0.1,0.1-0.2,0.2-0.2,0.3c0,0.1,0,0.4,0.1,0.7l0,0.1c0.2,0.7,0.3,1.1,0.3,1.4
			c0,0.2-0.1,0.4-0.3,0.6c-0.1,0.2-0.3,0.3-0.5,0.5c-0.5,0.4-1.1,0.5-1.6,0.4c-0.6-0.1-1-0.5-1.4-1.1c-0.2-0.3-0.4-0.7-0.5-1.1
			s-0.1-0.8,0-1.2L23.9,95.1z"/>
		<path d="M25.1,100.1l4.7-3.8l2.3,2.9l-1,0.8l-1.3-1.6L28.9,99l1.2,1.5l-1,0.8l-1.2-1.5l-0.8,0.6l1.3,1.6l-1,0.8L25.1,100.1z"/>
		<path d="M28.2,103.9l4.3-4.2l0.9,0.9c0.7,0.7,1.1,1.2,1.3,1.5c0.2,0.3,0.3,0.7,0.4,1c0.1,0.5,0,0.9-0.1,1.3
			c-0.2,0.4-0.4,0.8-0.8,1.2c-0.4,0.4-0.8,0.6-1.2,0.8c-0.4,0.1-0.9,0.2-1.3,0.1c-0.3-0.1-0.7-0.2-1-0.4c-0.3-0.2-0.8-0.6-1.3-1.1
			l-0.2-0.2L28.2,103.9z M30.3,104.1l0.2,0.2c0.5,0.5,0.9,0.7,1.3,0.7c0.4,0,0.8-0.2,1.2-0.6c0.4-0.4,0.6-0.8,0.6-1.2
			c0-0.4-0.2-0.8-0.7-1.3l-0.2-0.2L30.3,104.1z"/>
		<path d="M38.5,105.5l1.3,1l-1.7,2.3c-0.3,0.3-0.4,0.6-0.5,0.8c-0.1,0.2-0.2,0.3-0.2,0.4c0,0.2,0,0.3,0.1,0.5
			c0.1,0.2,0.2,0.3,0.4,0.4c0.2,0.1,0.4,0.2,0.5,0.2c0.2,0,0.3,0,0.5-0.1c0.1-0.1,0.2-0.2,0.4-0.3c0.1-0.1,0.3-0.4,0.6-0.7l0.2-0.3
			l1.5-2l1.3,1l-1.9,2.5c-0.4,0.5-0.7,0.9-1,1.1c-0.3,0.2-0.5,0.3-0.8,0.4c-0.3,0.1-0.6,0-1-0.1c-0.4-0.1-0.7-0.3-1.2-0.6
			c-0.4-0.3-0.7-0.6-0.9-0.9c-0.2-0.3-0.3-0.6-0.4-0.9c0-0.3,0-0.6,0.2-0.9c0.1-0.3,0.4-0.7,0.8-1.2l0.4-0.5L38.5,105.5z"/>
		<path d="M40.4,114.3l3-5.2l1.4,0.8l0.4,3.8c0,0.1,0,0.2,0,0.4c0,0.2,0,0.5-0.1,0.8c0.1-0.2,0.2-0.4,0.3-0.6
			c0.1-0.2,0.2-0.3,0.2-0.5l1.5-2.6l1.4,0.8l-3,5.2l-1.4-0.8l-0.4-3.8c0-0.1,0-0.2,0-0.4c0-0.2,0-0.5,0.1-0.7
			c-0.1,0.2-0.2,0.4-0.3,0.6c-0.1,0.2-0.2,0.3-0.2,0.5l-1.5,2.6L40.4,114.3z"/>
		<path d="M46.9,117.9l2.4-5.5l1.1,0.5c0.9,0.4,1.4,0.7,1.8,0.9c0.3,0.2,0.6,0.5,0.8,0.8c0.2,0.4,0.4,0.8,0.4,1.3
			c0,0.5-0.1,0.9-0.3,1.4c-0.2,0.5-0.5,0.9-0.8,1.2c-0.3,0.3-0.7,0.5-1.2,0.6c-0.3,0.1-0.7,0.1-1.1,0c-0.4-0.1-0.9-0.3-1.6-0.6
			l-0.3-0.1L46.9,117.9z M48.9,117.4l0.3,0.1c0.6,0.3,1.1,0.3,1.4,0.2c0.4-0.1,0.7-0.5,0.9-1c0.2-0.5,0.3-1,0.1-1.3
			c-0.2-0.4-0.5-0.7-1.1-0.9l-0.3-0.1L48.9,117.4z"/>
		<path d="M53,120.5l1.9-5.7l3.5,1.1l-0.4,1.3l-2-0.6l-0.3,1l1.9,0.6l-0.4,1.2l-1.9-0.6l-0.3,1l2,0.6l-0.4,1.3L53,120.5z"/>
		<path d="M57.7,121.9l1.4-5.8l1.7,0.4c0.7,0.2,1.1,0.3,1.3,0.4c0.2,0.1,0.4,0.3,0.6,0.5c0.2,0.2,0.3,0.4,0.3,0.7
			c0.1,0.3,0,0.6,0,0.9c-0.1,0.5-0.3,0.8-0.6,1c-0.3,0.2-0.7,0.3-1.1,0.3l1,2.7l-1.8-0.4l-0.8-2.6l-0.5,2.3L57.7,121.9z M59.9,119.2
			l0.3,0.1c0.3,0.1,0.6,0.1,0.8,0c0.2-0.1,0.3-0.2,0.4-0.5c0.1-0.3,0-0.5-0.1-0.7c-0.1-0.2-0.4-0.3-0.7-0.4l-0.3-0.1L59.9,119.2z"/>
		<path d="M66.2,117.6l1.6,0.1l-0.2,2.9c0,0.4,0,0.7,0,0.9c0,0.2,0,0.3,0.1,0.5c0.1,0.2,0.1,0.3,0.3,0.4c0.1,0.1,0.3,0.1,0.6,0.2
			c0.2,0,0.4,0,0.6-0.1c0.2-0.1,0.3-0.2,0.4-0.3c0.1-0.1,0.1-0.3,0.1-0.5c0-0.2,0.1-0.5,0.1-0.9l0-0.4l0.2-2.5l1.6,0.1l-0.3,3.2
			c-0.1,0.7-0.1,1.1-0.2,1.4c-0.1,0.3-0.3,0.6-0.5,0.8c-0.2,0.2-0.5,0.4-0.9,0.5s-0.8,0.1-1.3,0.1c-0.5,0-0.9-0.1-1.3-0.3
			s-0.6-0.4-0.8-0.6c-0.2-0.2-0.3-0.5-0.3-0.8c-0.1-0.3-0.1-0.8,0-1.5l0.1-0.6L66.2,117.6z"/>
		<path d="M72.5,124l-0.2-6l1.6-0.1l2.4,3c0,0.1,0.1,0.2,0.2,0.4c0.1,0.2,0.2,0.4,0.4,0.7c0-0.2-0.1-0.5-0.1-0.7c0-0.2,0-0.4,0-0.5
			l-0.1-3l1.6-0.1l0.2,6l-1.6,0.1l-2.4-3c0-0.1-0.1-0.2-0.2-0.4c-0.1-0.2-0.2-0.4-0.3-0.7c0,0.3,0.1,0.5,0.1,0.7c0,0.2,0,0.4,0,0.5
			l0.1,3L72.5,124z"/>
		<path d="M79.9,123.6l-0.7-6l1.6-0.2l0.7,6L79.9,123.6z"/>
		<path d="M83.7,123.1l-0.8-4.5l-1.3,0.2l-0.3-1.4l4.3-0.8l0.3,1.4l-1.3,0.2l0.8,4.5L83.7,123.1z"/>
		<path d="M88.6,122.1l-0.7-2.6l-2.9-2.6l1.8-0.5l1.2,1.3c0,0,0,0,0,0c0.1,0.1,0.2,0.3,0.3,0.4c0-0.1,0-0.3,0.1-0.5c0,0,0-0.1,0-0.1
			l0.4-1.7l1.8-0.5l-1.2,3.7l0.7,2.6L88.6,122.1z"/>
		<path d="M90.9,120l-0.4-1.3l2.6-0.9l0.4,1.3L90.9,120z"/>
		<path d="M97.1,112.9l0.7,1.6c-0.3-0.1-0.6-0.2-0.8-0.2c-0.3,0-0.5,0-0.7,0.1c-0.4,0.2-0.7,0.5-0.9,0.9c-0.1,0.4-0.1,0.9,0.1,1.3
			c0.2,0.4,0.5,0.8,0.9,0.9c0.4,0.2,0.8,0.2,1.2,0c0.2-0.1,0.4-0.2,0.6-0.4c0.2-0.2,0.3-0.5,0.4-0.8l0.7,1.6
			c-0.2,0.2-0.4,0.4-0.6,0.6c-0.2,0.2-0.4,0.3-0.7,0.4c-0.3,0.1-0.6,0.2-0.9,0.2c-0.3,0-0.6,0-0.8,0c-0.5-0.1-1-0.3-1.4-0.6
			c-0.4-0.3-0.7-0.8-0.9-1.3c-0.2-0.4-0.3-0.8-0.3-1.2c0-0.4,0.1-0.8,0.2-1.2c0.1-0.4,0.4-0.7,0.6-1c0.3-0.3,0.6-0.5,1-0.7
			c0.2-0.1,0.5-0.2,0.8-0.2C96.6,112.9,96.9,112.9,97.1,112.9z"/>
		<path d="M100.4,117.8l-2.9-5.3l1.4-0.8l1.1,2l1.9-1.1l-1.1-2l1.4-0.8l2.9,5.3l-1.4,0.8l-1.2-2.1l-1.9,1.1l1.2,2.1L100.4,117.8z"/>
		<path d="M105.9,114.7l-1.8-6.1l1.7-1.2l5.1,3.7l-1.3,0.9l-0.9-0.7l-1.9,1.3l0.4,1.1L105.9,114.7z M106.5,111.6l1.3-0.9l-1.6-1.3
			c-0.1,0-0.1-0.1-0.2-0.2c-0.1-0.1-0.2-0.2-0.4-0.3c0.1,0.1,0.1,0.3,0.2,0.4c0,0.1,0.1,0.3,0.1,0.4L106.5,111.6z"/>
		<path d="M111.6,110.6l-4-4.5l1.2-1l3.7,0.8c0.1,0,0.2,0.1,0.4,0.1c0.2,0.1,0.4,0.2,0.7,0.3c-0.2-0.2-0.4-0.3-0.5-0.4
			s-0.3-0.3-0.4-0.4l-2-2.2l1.2-1l4,4.5l-1.2,1l-3.8-0.8c-0.1,0-0.2-0.1-0.4-0.1c-0.2-0.1-0.4-0.2-0.7-0.3c0.2,0.2,0.4,0.3,0.5,0.5
			c0.1,0.1,0.3,0.3,0.4,0.4l2,2.2L111.6,110.6z"/>
		<path d="M118.8,103.8l-4.6-3.9l1.1-1.2l3.5,3l1.3-1.5l1.1,0.9L118.8,103.8z"/>
		<path d="M121.7,100.2l-4.8-3.6l1-1.3l4.8,3.6L121.7,100.2z"/>
		<path d="M121.1,91l1.5,1c-0.3,0.1-0.6,0.1-0.8,0.3c-0.2,0.1-0.4,0.3-0.5,0.5c-0.3,0.4-0.3,0.8-0.2,1.2c0.1,0.4,0.4,0.8,0.8,1
			c0.4,0.3,0.8,0.4,1.2,0.3c0.4-0.1,0.8-0.3,1-0.7c0.1-0.2,0.2-0.4,0.2-0.7c0-0.3,0-0.5-0.1-0.9l1.5,1c0,0.3-0.1,0.6-0.2,0.8
			c-0.1,0.2-0.2,0.5-0.3,0.7c-0.2,0.3-0.4,0.5-0.6,0.7c-0.2,0.2-0.5,0.3-0.7,0.4c-0.5,0.2-1,0.3-1.5,0.2c-0.5-0.1-1-0.2-1.5-0.5
			c-0.4-0.2-0.7-0.5-0.9-0.9c-0.2-0.3-0.4-0.7-0.5-1.1c-0.1-0.4-0.1-0.8,0-1.2c0.1-0.4,0.2-0.8,0.5-1.1c0.1-0.2,0.3-0.4,0.5-0.6
			C120.6,91.3,120.8,91.2,121.1,91z"/>
		<path d="M126.4,93.2l-5.3-2.8l1.7-3.2l1.2,0.6l-1,1.8l0.9,0.5l0.9-1.7L126,89l-0.9,1.7l0.9,0.5l1-1.8l1.2,0.6L126.4,93.2z"/>
		<path d="M128.8,88.8l-5.6-2.3l0.6-1.5l3.7-0.9c0.1,0,0.2,0,0.4-0.1c0.2,0,0.5,0,0.8,0c-0.2-0.1-0.5-0.1-0.6-0.2
			c-0.2-0.1-0.3-0.1-0.5-0.2l-2.7-1.1l0.6-1.5l5.6,2.3l-0.6,1.5l-3.7,0.9c-0.1,0-0.2,0-0.4,0.1c-0.2,0-0.5,0-0.7,0
			c0.2,0.1,0.5,0.1,0.6,0.2c0.2,0.1,0.3,0.1,0.5,0.2l2.7,1.1L128.8,88.8z"/>
		<path d="M129.7,81.2c0.3-0.2,0.6-0.3,0.8-0.5c0.2-0.2,0.3-0.4,0.4-0.6c0.1-0.2,0.1-0.4,0-0.6c-0.1-0.2-0.2-0.3-0.4-0.3
			c-0.2-0.1-0.4,0-0.5,0s-0.3,0.3-0.6,0.7c-0.3,0.5-0.6,0.9-0.9,1c-0.3,0.2-0.7,0.2-1.1,0.1c-0.6-0.2-0.9-0.5-1.2-0.9
			c-0.2-0.5-0.3-1-0.1-1.6c0.1-0.3,0.2-0.6,0.4-0.9c0.2-0.3,0.4-0.5,0.6-0.7l1,0.8c-0.2,0.1-0.4,0.3-0.5,0.4
			c-0.1,0.2-0.2,0.3-0.3,0.5c-0.1,0.2-0.1,0.4,0,0.5c0.1,0.1,0.2,0.2,0.3,0.3c0.1,0,0.3,0,0.4-0.1c0.1-0.1,0.3-0.3,0.4-0.5l0-0.1
			c0.4-0.6,0.7-1,0.9-1.1c0.2-0.1,0.4-0.1,0.6-0.2c0.2,0,0.4,0,0.7,0.1c0.6,0.2,1,0.5,1.3,1s0.3,1.1,0.1,1.8c-0.1,0.4-0.3,0.7-0.5,1
			c-0.2,0.3-0.5,0.5-0.9,0.8L129.7,81.2z"/>
		<path d="M132.8,77.1l-5.9-1.2l0.7-3.6l1.3,0.3l-0.4,2l1,0.2l0.4-1.9l1.3,0.3l-0.4,1.9l1,0.2l0.4-2l1.3,0.3L132.8,77.1z"/>
	</g>
</g>
</svg>
