<?xml version="1.0" encoding="utf-8"?>
<!-- Generator: Adobe Illustrator 17.1.0, SVG Export Plug-In . SVG Version: 6.00 Build 0)  -->
<!DOCTYPE svg PUBLIC "-//W3C//DTD SVG 1.1//EN" "http://www.w3.org/Graphics/SVG/1.1/DTD/svg11.dtd">
<svg version="1.1" id="レイヤー_1" xmlns="http://www.w3.org/2000/svg" xmlns:xlink="http://www.w3.org/1999/xlink" x="0px"
	 y="0px" viewBox="0 0 140 121" enable-background="new 0 0 140 121" xml:space="preserve">
<g>
	<path d="M70.1,36.2c2.9,0,5.8,0.3,8.4,0.9l4-5.5c-3.8-1.8-8-2.8-12.4-2.8s-8.6,1-12.4,2.8l4,5.5C64.3,36.5,67.1,36.2,70.1,36.2z"/>
	<path d="M70.1,91.5c14.3,0,24.2-9.5,27.9-22.6H42.1C45.9,81.9,55.8,91.5,70.1,91.5z"/>
	<path d="M98.2,50.4c-1.4-5.2-4.2-9.9-8.1-13.6l-4.9,2.3C91.2,41.8,95.8,45.7,98.2,50.4z"/>
	<path d="M70.5,48.9c0,0,3.2,7,7.3,8.4c-2.3,2.7-2.9,7-1.7,5.8c6.3-6.5,16.2-8.4,20.3-3c0.5,0.7,0.8,1.3,1.1,1
		c1-0.9,0.3-6.7-3.6-8.8c-4.4-2.4-9.8-0.6-14.1,3C74.7,54.3,70.5,48.9,70.5,48.9z"/>
	<path d="M54.8,39.2l-4.9-2.4c-3.8,3.6-6.7,8.3-8.1,13.6C44.3,45.7,48.9,41.7,54.8,39.2z"/>
	<g>
		<path d="M140,24.3h-30.6C99.7,13.6,85.7,6.9,70.1,6.9s-29.6,6.7-39.4,17.4H0l20.2,17c-2.2,5.9-3.4,12.2-3.4,18.8
			c0,29.4,23.8,53.2,53.2,53.2s53.2-23.8,53.2-53.2c0-6.6-1.2-13-3.4-18.9L140,24.3z M6.9,26.8l25.4,0.1c0,0,2.9-3.9,6.4-7
			s7.3-4.3,7.3-4.3l9.4,12.8c4.5-2.1,9.5-3.3,14.7-3.3c5.3,0,10.3,1.2,14.7,3.3l9.4-12.8c0,0,3.8,1.2,7.3,4.3s6.4,7,6.4,7l25.4-0.1
			l-27.3,21c0,0-0.9-3.5-3.4-7.8c-2.6-4.4-5.5-6.5-5.5-6.5l-2.8,1.4c6.6,6.4,10.8,15.3,10.8,25.2c0,19.3-15.6,35-35,35
			c-19.3,0-35-15.6-35-35c0-4.5,0.9-8.9,2.4-12.8c0.6,1.1,2.5,4.7,5,6.8c-1.3,2.2-0.5,4.4,1.5,6.4c2.9,2.9,16.6,3.8,20.1,2.6
			c4.5-1.6-10.8-17.5-18.8-11.8c-0.5,0.4-1,0.7-1.4,1.1c-3.2-1.6-5.6-4.3-6.4-5.2c1.9-4.7,4.7-8.9,8.3-12.3L43,33.6
			c0,0-2.9,2.1-5.5,6.5c-2.5,4.2-3.4,7.8-3.4,7.8L6.9,26.8z M116,56.3l-9.4,1.1l-0.4-3.3l9.4-1.1L116,56.3z M19.3,57.5
			c0.1-1.1,0.2-2.1,0.5-2.8c0.3-0.8,0.7-1.4,1.3-1.8c0.5-0.4,1.1-0.6,1.8-0.8c0.7-0.1,1.8-0.2,3.2-0.1l1.4,0.1l5.6,0.3L32.9,56
			l-6.4-0.3c-0.9,0-1.6-0.1-2,0c-0.4,0-0.8,0.1-1,0.2c-0.3,0.1-0.6,0.3-0.8,0.7c-0.2,0.3-0.3,0.7-0.3,1.2s0,0.9,0.2,1.3
			c0.2,0.3,0.4,0.6,0.7,0.8c0.3,0.1,0.6,0.2,1,0.3s1.1,0.1,2,0.2h0.9l5.5,0.3L32.5,64l-7-0.4c-1.4-0.1-2.5-0.2-3.2-0.4
			s-1.3-0.5-1.7-1c-0.5-0.5-0.9-1.1-1.1-1.9C19.3,59.5,19.2,58.6,19.3,57.5z M23.7,80.2l4.7-7c0.1-0.1,0.3-0.4,0.6-0.7
			c0.3-0.3,0.7-0.7,1.1-1.2c-0.5,0.3-0.9,0.5-1.3,0.7s-0.7,0.3-1,0.4l-6.1,2.2l-1.2-3.3l12.4-4.5l1.2,3.3l-4.7,7
			c-0.1,0.1-0.3,0.4-0.6,0.7c-0.3,0.4-0.7,0.7-1.2,1.2c0.5-0.3,0.9-0.5,1.3-0.6c0.4-0.2,0.7-0.3,1.1-0.4l6.1-2.2l1.2,3.2l-12.4,4.5
			L23.7,80.2z M31.3,92.5l-2.2-2.9l10.4-8.1l2.2,2.9L31.3,92.5z M48.8,94.8L46.5,93l-6.2,7.9l-2.8-2.2l6.2-7.9L41.4,89l1.9-2.5
			l7.5,5.9L48.8,94.8z M56.3,102.4l-2.1,5.7l-3.3-1.2l2.1-5.7l-1.9-8.3l3.9,1.4l0.5,3.8v0.1c0.1,0.4,0.1,0.8,0,1.1
			c0.2-0.3,0.4-0.5,0.7-0.8c0.1,0,0.1-0.1,0.1-0.1l2.8-2.6l3.9,1.4L56.3,102.4z M76.7,102.3l-4.1,3.1l1.7,4.9l0,0l-4.2-3l-4.1,3.1
			l0,0l1.5-5l-4.2-2.9v-0.1l5.1-0.1l1.5-4.9H70l1.7,4.9H76.7L76.7,102.3z M89.6,107c-0.5,0.3-1,0.6-1.5,0.8c-0.7,0.2-1.3,0.4-2,0.4
			c-0.6,0-1.2,0-1.8-0.2c-1.2-0.3-2.1-0.8-3-1.6c-0.8-0.8-1.4-1.7-1.9-2.9c-0.3-1-0.5-1.9-0.5-2.8s0.2-1.8,0.6-2.6
			c0.4-0.8,0.9-1.5,1.5-2.1s1.4-1,2.3-1.3c0.5-0.2,1.1-0.3,1.7-0.4s1.2-0.1,1.8,0l1.3,3.7c-0.6-0.3-1.2-0.6-1.8-0.6
			c-0.5-0.1-1.1,0-1.6,0.2c-1,0.3-1.6,1-2,1.8c-0.4,0.9-0.4,1.9,0,2.9s1,1.7,1.8,2.1s1.7,0.5,2.7,0.1c0.5-0.2,1-0.5,1.4-0.9
			s0.7-1,1-1.6l1.3,3.7C90.5,106.3,90.1,106.7,89.6,107z M103.6,97.8l-3.4-4.2l-3.7,3l3.4,4.2l-2.8,2.3l-8.3-10.3l2.8-2.3l3.2,4
			l3.7-3l-3.2-4l2.8-2.3l8.3,10.3L103.6,97.8z M115.1,83l-2.4-0.6l-2.6,4.4l1.7,1.8l-1.8,3.1l-9-10.6l2.3-3.9L117,80L115.1,83z
			 M120.3,65.4l-7.5,3.8c-0.2,0.1-0.5,0.2-0.9,0.3c-0.4,0.1-1,0.3-1.6,0.5c0.6,0,1,0,1.5,0.1c0.4,0,0.8,0.1,1.1,0.1l6.4,1.1
			l-0.6,3.4l-13-2.2l0.6-3.4l7.5-3.8c0.2-0.1,0.5-0.2,0.9-0.3c0.4-0.1,1-0.3,1.6-0.5c-0.6,0-1,0-1.5-0.1c-0.4,0-0.8-0.1-1.1-0.1
			l-6.4-1.1l0.6-3.4l13,2.2L120.3,65.4z M120.5,54.1c0.1,0.5-0.1,0.9-0.4,1.3c-0.3,0.4-0.7,0.6-1.2,0.7c-0.5,0.1-1-0.1-1.3-0.4
			c-0.4-0.3-0.6-0.7-0.7-1.2s0.1-1,0.4-1.4s0.7-0.6,1.2-0.7c0.5-0.1,1,0.1,1.4,0.4C120.2,53.2,120.4,53.6,120.5,54.1z"/>
		<path d="M105.2,81.4l3.1,3.4l1.8-3.1l-4.4-1.1c-0.1,0-0.3-0.1-0.6-0.2c-0.3-0.1-0.7-0.2-1.1-0.3c0.2,0.2,0.5,0.5,0.7,0.7
			C104.8,81,105,81.2,105.2,81.4z"/>
	</g>
	<path d="M14.9,45.7l-0.6,2.2l0,0l-0.8-2.2l-2.4,0.1l0,0l1.9-1.5l-0.8-2.2l0,0l2,1.3L16,42l0,0l-0.6,2.2l2,1.3l0,0L14.9,45.7z"/>
	<path d="M13.3,53.9L13,56.3l0,0l-1.1-2.1l-2.3,0.4l0,0l1.6-1.7L10,50.8l0,0l2.1,1l1.6-1.7l0,0l-0.3,2.3l2.1,1l0,0L13.3,53.9z"/>
	<path d="M12.9,62.4v2.3l0,0l-1.4-1.9l-2.2,0.8l0,0l1.4-1.9l-1.4-1.9l0,0l2.3,0.7l1.3-1.9l0,0v2.3l2.3,0.7l0,0L12.9,62.4z"/>
	<path d="M127.3,61.8l0.1-2.3l0,0l1.3,1.9l2.3-0.7l0,0l-1.4,1.9l1.3,2l0,0l-2.2-0.8l-1.4,1.8l0,0l0.1-2.3l-2.2-0.8l0,0L127.3,61.8z"
		/>
	<path d="M126.8,53.4l-0.3-2.3l0,0l1.6,1.7l2.2-1l0,0l-1.2,2.1l1.6,1.7l0,0l-2.3-0.5l-1.1,2l0,0l-0.3-2.3l-2.3-0.5l0,0L126.8,53.4z"
		/>
	<path d="M125.1,45.1l-0.6-2.3l0,0l1.8,1.5l2-1.3l0,0l-0.8,2.2l1.8,1.5l0,0l-2.4-0.1l-0.8,2.2l0,0l-0.6-2.3l-2.4-0.1l0,0L125.1,45.1
		z"/>
	<path d="M109.8,19.7l-1.7-1.6l0,0l2.3,0.4l1.1-2.1l0,0l0.4,2.3l2.3,0.4l0,0l-2.1,1.1l0.4,2.3l0,0l-1.7-1.6l-2.1,1.1l0,0L109.8,19.7
		z"/>
	<path d="M102.9,14l-1.9-1.4l0,0h2.3l0.7-2.3l0,0l0.7,2.2h2.4l0,0l-1.9,1.4l0.7,2.2l0,0l-1.9-1.4l-1.9,1.4l0,0L102.9,14z"/>
	<path d="M95.2,9.5l-2.1-1.1l0,0L95.4,8l0.4-2.3l0,0l1.1,2.1l2.3-0.4l0,0l-1.7,1.7l1.1,2.1l0,0l-2.1-1.1l-1.7,1.7l0,0L95.2,9.5z"/>
	<path d="M86.9,6.2l-2.2-0.7l0,0l2.2-0.7V2.4l0,0l1.4,1.9l2.2-0.7l0,0l-1.4,1.9l1.4,1.9l0,0l-2.2-0.7l-1.4,1.9l0,0V6.2z"/>
	<path d="M78.2,4.3l-2.3-0.4l0,0L78,2.8l-0.4-2.3l0,0l1.7,1.7L81.4,1l0,0l-1.1,2.1L82,4.8l0,0l-2.3-0.4l-1.1,2.1l0,0L78.2,4.3z"/>
	<path d="M69.2,3.7h-2.3l0,0l1.9-1.4L68,0.1l0,0l2,1.3L71.8,0l0,0l-0.7,2.3L73,3.6l0,0h-2.3L70,5.9l0,0L69.2,3.7z"/>
	<path d="M60.3,4.5L58,4.9l0,0l1.7-1.6l-1.1-2.1l0,0l2.1,1.1l1.7-1.7l0,0L62,2.8l2.1,1.1l0,0l-2.3,0.4l-0.4,2.3l0,0L60.3,4.5z"/>
	<path d="M51.7,6.7l-2.2,0.7l0,0l1.4-1.9l-1.4-1.9l0,0l2.3,0.7l1.4-1.9l0,0v2.4l2.2,0.7l0,0l-2.2,0.7v2.4l0,0L51.7,6.7z"/>
	<path d="M43.5,10.2l-2.1,1.1l0,0l1.1-2.1l-1.7-1.7l0,0l2.3,0.4l1.1-2.1l0,0l0.4,2.3l2.3,0.4l0,0l-2.1,1.1l0.4,2.3l0,0L43.5,10.2z"
		/>
	<path d="M35.9,15L34,16.4l0,0l0.7-2.2l-1.9-1.4l0,0h2.4l0.7-2.3l0,0l0.7,2.3h2.3l0,0L37,14.2l0.7,2.2l0,0L35.9,15z"/>
	<path d="M29.2,20.9l-1.7,1.7l0,0l0.4-2.3l-2.1-1.1l0,0l2.3-0.4l0.4-2.3l0,0l1.1,2.1l2.3-0.4l0,0l-1.7,1.7l1.1,2.1l0,0L29.2,20.9z"
		/>
	<g>
		<path d="M9.8,69.4l5.9-1.1L16,70l-4.5,0.8l0.4,2l-1.4,0.3L9.8,69.4z"/>
		<path d="M10.7,73.9l5.8-1.4l0.4,1.6l-5.8,1.4L10.7,73.9z"/>
		<path d="M18.2,79.3l-1.7,0.5c0.2-0.3,0.3-0.6,0.3-0.8c0-0.2,0-0.5-0.1-0.7c-0.1-0.4-0.4-0.8-0.8-0.9c-0.4-0.2-0.8-0.2-1.3,0
			c-0.5,0.1-0.8,0.4-1,0.8s-0.2,0.8-0.1,1.2c0.1,0.2,0.2,0.5,0.4,0.6c0.2,0.2,0.4,0.3,0.7,0.5L13,81c-0.2-0.2-0.4-0.4-0.5-0.7
			c-0.1-0.2-0.2-0.5-0.3-0.7C12,79.3,12,79,12,78.7s0-0.6,0.1-0.8c0.1-0.5,0.4-1,0.8-1.3c0.4-0.4,0.8-0.6,1.4-0.8
			c0.4-0.1,0.9-0.2,1.3-0.2c0.4,0,0.8,0.1,1.2,0.3c0.4,0.2,0.7,0.4,0.9,0.7c0.2,0.3,0.4,0.7,0.6,1.1c0.1,0.2,0.1,0.5,0.1,0.8
			C18.3,78.7,18.3,79,18.2,79.3z"/>
		<path d="M13.1,82l5.5-2.3l1.4,3.4l-1.2,0.5L18,81.7l-1,0.4l0.8,1.8l-1.2,0.5l-0.8-1.8L15,83l0.8,1.9l-1.2,0.5L13.1,82z"/>
		<path d="M15.1,86.6l5.3-2.9l0.8,1.4l-1.6,3.5c0,0.1-0.1,0.2-0.2,0.4c-0.1,0.2-0.3,0.4-0.4,0.6c0.2-0.1,0.4-0.3,0.5-0.4
			c0.2-0.1,0.3-0.2,0.4-0.3l2.6-1.4l0.8,1.4L18,91.8l-0.8-1.4l1.6-3.5c0-0.1,0.1-0.2,0.2-0.4c0.1-0.2,0.3-0.4,0.4-0.6
			c-0.2,0.1-0.4,0.3-0.6,0.4s-0.3,0.2-0.4,0.3L15.8,88L15.1,86.6z"/>
		<path d="M20.5,92.1c-0.1,0.4-0.1,0.7-0.1,0.9c0,0.3,0.1,0.5,0.2,0.7s0.3,0.3,0.5,0.3s0.3,0,0.5-0.1s0.3-0.2,0.3-0.4
			c0-0.2,0-0.5-0.2-0.9c-0.2-0.6-0.3-1-0.2-1.4c0.1-0.3,0.3-0.6,0.7-0.9c0.5-0.3,1-0.4,1.5-0.3s0.9,0.4,1.3,0.9
			c0.2,0.3,0.3,0.6,0.4,0.9s0.1,0.6,0.1,0.9l-1.3,0.2c0-0.2,0-0.5,0-0.7s-0.1-0.4-0.2-0.5c-0.1-0.2-0.2-0.3-0.4-0.3
			c-0.1,0-0.3,0-0.4,0.1S23,91.7,23,91.8c0,0.1,0,0.4,0.1,0.7v0.1c0.2,0.7,0.3,1.1,0.3,1.4c0,0.2-0.1,0.4-0.3,0.6
			c-0.1,0.2-0.3,0.3-0.5,0.5c-0.5,0.4-1.1,0.5-1.6,0.4c-0.6-0.1-1-0.5-1.4-1.1c-0.2-0.3-0.4-0.7-0.5-1.1s-0.1-0.8,0-1.2H20.5z"/>
		<path d="M21.6,97.1l4.7-3.8l2.3,2.9l-1,0.8l-1.3-1.6l-0.8,0.7l1.2,1.5l-1,0.8l-1.2-1.5l-0.8,0.6l1.3,1.6l-1,0.8L21.6,97.1z"/>
		<path d="M24.8,100.9l4.3-4.2l0.9,0.9c0.7,0.7,1.1,1.2,1.3,1.5c0.2,0.3,0.3,0.7,0.4,1c0.1,0.5,0,0.9-0.1,1.3
			c-0.2,0.4-0.4,0.8-0.8,1.2c-0.4,0.4-0.8,0.6-1.2,0.8c-0.4,0.1-0.9,0.2-1.3,0.1c-0.3-0.1-0.7-0.2-1-0.4c-0.3-0.2-0.8-0.6-1.3-1.1
			l-0.2-0.2L24.8,100.9z M26.8,101.1l0.2,0.2c0.5,0.5,0.9,0.7,1.3,0.7s0.8-0.2,1.2-0.6c0.4-0.4,0.6-0.8,0.6-1.2
			c0-0.4-0.2-0.8-0.7-1.3l-0.2-0.2L26.8,101.1z"/>
		<path d="M35,102.5l1.3,1l-1.7,2.3c-0.3,0.3-0.4,0.6-0.5,0.8c-0.1,0.2-0.2,0.3-0.2,0.4c0,0.2,0,0.3,0.1,0.5s0.2,0.3,0.4,0.4
			s0.4,0.2,0.5,0.2c0.2,0,0.3,0,0.5-0.1c0.1-0.1,0.2-0.2,0.4-0.3c0.1-0.1,0.3-0.4,0.6-0.7l0.2-0.3l1.5-2l1.3,1l-1.9,2.5
			c-0.4,0.5-0.7,0.9-1,1.1s-0.5,0.3-0.8,0.4s-0.6,0-1-0.1s-0.7-0.3-1.2-0.6c-0.4-0.3-0.7-0.6-0.9-0.9s-0.3-0.6-0.4-0.9
			c0-0.3,0-0.6,0.2-0.9c0.1-0.3,0.4-0.7,0.8-1.2l0.4-0.5L35,102.5z"/>
		<path d="M37,111.4l3-5.2l1.4,0.8l0.4,3.8c0,0.1,0,0.2,0,0.4c0,0.2,0,0.5-0.1,0.8c0.1-0.2,0.2-0.4,0.3-0.6s0.2-0.3,0.2-0.5l1.5-2.6
			l1.4,0.8l-3,5.2l-1.4-0.8l-0.4-3.8c0-0.1,0-0.2,0-0.4c0-0.2,0-0.5,0.1-0.7c-0.1,0.2-0.2,0.4-0.3,0.6s-0.2,0.3-0.2,0.5l-1.5,2.6
			L37,111.4z"/>
		<path d="M43.5,115l2.4-5.5L47,110c0.9,0.4,1.4,0.7,1.8,0.9c0.3,0.2,0.6,0.5,0.8,0.8c0.2,0.4,0.4,0.8,0.4,1.3s-0.1,0.9-0.3,1.4
			s-0.5,0.9-0.8,1.2c-0.3,0.3-0.7,0.5-1.2,0.6c-0.3,0.1-0.7,0.1-1.1,0c-0.4-0.1-0.9-0.3-1.6-0.6l-0.3-0.1L43.5,115z M45.5,114.4
			l0.3,0.1c0.6,0.3,1.1,0.3,1.4,0.2c0.4-0.1,0.7-0.5,0.9-1s0.3-1,0.1-1.3c-0.2-0.4-0.5-0.7-1.1-0.9l-0.3-0.1L45.5,114.4z"/>
		<path d="M49.6,117.5l1.9-5.7l3.5,1.1l-0.4,1.3l-2-0.6l-0.3,1l1.9,0.6l-0.4,1.2l-1.9-0.6l-0.3,1l2,0.6l-0.4,1.3L49.6,117.5z"/>
		<path d="M54.3,119l1.4-5.8l1.7,0.4c0.7,0.2,1.1,0.3,1.3,0.4s0.4,0.3,0.6,0.5c0.2,0.2,0.3,0.4,0.3,0.7c0.1,0.3,0,0.6,0,0.9
			c-0.1,0.5-0.3,0.8-0.6,1s-0.7,0.3-1.1,0.3l1,2.7l-1.8-0.4l-0.8-2.6l-0.5,2.3L54.3,119z M56.5,116.2l0.3,0.1c0.3,0.1,0.6,0.1,0.8,0
			s0.3-0.2,0.4-0.5c0.1-0.3,0-0.5-0.1-0.7s-0.4-0.3-0.7-0.4l-0.3-0.1L56.5,116.2z"/>
		<path d="M62.8,114.6l1.6,0.1l-0.2,2.9c0,0.4,0,0.7,0,0.9c0,0.2,0,0.3,0.1,0.5s0.1,0.3,0.3,0.4c0.1,0.1,0.3,0.1,0.6,0.2
			c0.2,0,0.4,0,0.6-0.1s0.3-0.2,0.4-0.3c0.1-0.1,0.1-0.3,0.1-0.5s0.1-0.5,0.1-0.9v-0.4l0.2-2.5l1.6,0.1l-0.3,3.2
			c-0.1,0.7-0.1,1.1-0.2,1.4s-0.3,0.6-0.5,0.8c-0.2,0.2-0.5,0.4-0.9,0.5S65.5,121,65,121s-0.9-0.1-1.3-0.3c-0.3-0.2-0.6-0.4-0.8-0.6
			s-0.3-0.5-0.3-0.8c-0.1-0.3-0.1-0.8,0-1.5l0.1-0.6L62.8,114.6z"/>
		<path d="M69.1,121.1l-0.2-6l1.6-0.1l2.4,3c0,0.1,0.1,0.2,0.2,0.4c0.1,0.2,0.2,0.4,0.4,0.7c0-0.2-0.1-0.5-0.1-0.7s0-0.4,0-0.5
			l-0.1-3l1.6-0.1l0.2,6l-1.6,0.1l-2.4-3c0-0.1-0.1-0.2-0.2-0.4c-0.1-0.2-0.2-0.4-0.3-0.7c0,0.3,0.1,0.5,0.1,0.7s0,0.4,0,0.5l0.1,3
			L69.1,121.1z"/>
		<path d="M76.4,120.7l-0.7-6l1.6-0.2l0.7,6L76.4,120.7z"/>
		<path d="M80.3,120.1l-0.8-4.5l-1.3,0.2l-0.3-1.4l4.3-0.8l0.3,1.4l-1.3,0.2l0.8,4.5L80.3,120.1z"/>
		<path d="M85.2,119.1l-0.7-2.6l-2.9-2.6l1.8-0.5l1.2,1.3l0,0c0.1,0.1,0.2,0.3,0.3,0.4c0-0.1,0-0.3,0.1-0.5v-0.1l0.4-1.7l1.8-0.5
			L86,116l0.7,2.6L85.2,119.1z"/>
		<path d="M87.5,117l-0.4-1.3l2.6-0.9l0.4,1.3L87.5,117z"/>
		<path d="M93.7,110l0.7,1.6c-0.3-0.1-0.6-0.2-0.8-0.2c-0.3,0-0.5,0-0.7,0.1c-0.4,0.2-0.7,0.5-0.9,0.9s-0.1,0.9,0.1,1.3
			s0.5,0.8,0.9,0.9c0.4,0.2,0.8,0.2,1.2,0c0.2-0.1,0.4-0.2,0.6-0.4c0.2-0.2,0.3-0.5,0.4-0.8l0.7,1.6c-0.2,0.2-0.4,0.4-0.6,0.6
			s-0.4,0.3-0.7,0.4c-0.3,0.1-0.6,0.2-0.9,0.2s-0.6,0-0.8,0c-0.5-0.1-1-0.3-1.4-0.6c-0.4-0.3-0.7-0.8-0.9-1.3
			c-0.2-0.4-0.3-0.8-0.3-1.2c0-0.4,0.1-0.8,0.2-1.2c0.1-0.4,0.4-0.7,0.6-1c0.3-0.3,0.6-0.5,1-0.7c0.2-0.1,0.5-0.2,0.8-0.2
			C93.1,110,93.4,109.9,93.7,110z"/>
		<path d="M97,114.8l-2.9-5.3l1.4-0.8l1.1,2l1.9-1.1l-1.1-2l1.4-0.8l2.9,5.3l-1.4,0.8l-1.2-2.1l-1.9,1.1l1.2,2.1L97,114.8z"/>
		<path d="M102.4,111.8l-1.8-6.1l1.7-1.2l5.1,3.7l-1.3,0.9l-0.9-0.7l-1.9,1.3l0.4,1.1L102.4,111.8z M103,108.6l1.3-0.9l-1.6-1.3
			c-0.1,0-0.1-0.1-0.2-0.2s-0.2-0.2-0.4-0.3c0.1,0.1,0.1,0.3,0.2,0.4c0,0.1,0.1,0.3,0.1,0.4L103,108.6z"/>
		<path d="M108.2,107.7l-4-4.5l1.2-1l3.7,0.8c0.1,0,0.2,0.1,0.4,0.1c0.2,0.1,0.4,0.2,0.7,0.3c-0.2-0.2-0.4-0.3-0.5-0.4
			s-0.3-0.3-0.4-0.4l-2-2.2l1.2-1l4,4.5l-1.2,1l-3.8-0.8c-0.1,0-0.2-0.1-0.4-0.1c-0.2-0.1-0.4-0.2-0.7-0.3c0.2,0.2,0.4,0.3,0.5,0.5
			c0.1,0.1,0.3,0.3,0.4,0.4l2,2.2L108.2,107.7z"/>
		<path d="M115.4,100.8l-4.6-3.9l1.1-1.2l3.5,3l1.3-1.5l1.1,0.9L115.4,100.8z"/>
		<path d="M118.3,97.3l-4.8-3.6l1-1.3l4.8,3.6L118.3,97.3z"/>
		<path d="M117.6,88l1.5,1c-0.3,0.1-0.6,0.1-0.8,0.3c-0.2,0.1-0.4,0.3-0.5,0.5c-0.3,0.4-0.3,0.8-0.2,1.2c0.1,0.4,0.4,0.8,0.8,1
			c0.4,0.3,0.8,0.4,1.2,0.3c0.4-0.1,0.8-0.3,1-0.7c0.1-0.2,0.2-0.4,0.2-0.7c0-0.3,0-0.5-0.1-0.9l1.5,1c0,0.3-0.1,0.6-0.2,0.8
			c-0.1,0.2-0.2,0.5-0.3,0.7c-0.2,0.3-0.4,0.5-0.6,0.7s-0.5,0.3-0.7,0.4c-0.5,0.2-1,0.3-1.5,0.2c-0.5-0.1-1-0.2-1.5-0.5
			c-0.4-0.2-0.7-0.5-0.9-0.9c-0.2-0.3-0.4-0.7-0.5-1.1s-0.1-0.8,0-1.2c0.1-0.4,0.2-0.8,0.5-1.1c0.1-0.2,0.3-0.4,0.5-0.6
			C117.2,88.4,117.4,88.2,117.6,88z"/>
		<path d="M123,90.2l-5.3-2.8l1.7-3.2l1.2,0.6l-1,1.8l0.9,0.5l0.9-1.7l1.1,0.6l-0.9,1.7l0.9,0.5l1-1.8l1.2,0.6L123,90.2z"/>
		<path d="M125.3,85.8l-5.6-2.3l0.6-1.5l3.7-0.9c0.1,0,0.2,0,0.4-0.1c0.2,0,0.5,0,0.8,0c-0.2-0.1-0.5-0.1-0.6-0.2
			c-0.2-0.1-0.3-0.1-0.5-0.2l-2.7-1.1L122,78l5.6,2.3l-0.6,1.5l-3.7,0.9c-0.1,0-0.2,0-0.4,0.1s-0.5,0-0.7,0c0.2,0.1,0.5,0.1,0.6,0.2
			c0.2,0.1,0.3,0.1,0.5,0.2l2.7,1.1L125.3,85.8z"/>
		<path d="M126.2,78.2c0.3-0.2,0.6-0.3,0.8-0.5c0.2-0.2,0.3-0.4,0.4-0.6s0.1-0.4,0-0.6s-0.2-0.3-0.4-0.3c-0.2-0.1-0.4,0-0.5,0
			s-0.3,0.3-0.6,0.7c-0.3,0.5-0.6,0.9-0.9,1c-0.3,0.2-0.7,0.2-1.1,0.1c-0.6-0.2-0.9-0.5-1.2-0.9c-0.2-0.5-0.3-1-0.1-1.6
			c0.1-0.3,0.2-0.6,0.4-0.9c0.2-0.3,0.4-0.5,0.6-0.7l1,0.8c-0.2,0.1-0.4,0.3-0.5,0.4c-0.1,0.2-0.2,0.3-0.3,0.5
			c-0.1,0.2-0.1,0.4,0,0.5s0.2,0.2,0.3,0.3c0.1,0,0.3,0,0.4-0.1s0.3-0.3,0.4-0.5v-0.1c0.4-0.6,0.7-1,0.9-1.1
			c0.2-0.1,0.4-0.1,0.6-0.2c0.2,0,0.4,0,0.7,0.1c0.6,0.2,1,0.5,1.3,1s0.3,1.1,0.1,1.8c-0.1,0.4-0.3,0.7-0.5,1s-0.5,0.5-0.9,0.8
			L126.2,78.2z"/>
		<path d="M129.3,74.2l-5.9-1.2l0.7-3.6l1.3,0.3l-0.4,2l1,0.2l0.4-1.9l1.3,0.3l-0.4,1.9l1,0.2l0.4-2l1.3,0.3L129.3,74.2z"/>
	</g>
</g>
</svg>
